<?xml version="1.0" encoding="utf-8"?>
<!-- Generator: Adobe Illustrator 27.2.0, SVG Export Plug-In . SVG Version: 6.00 Build 0)  -->
<svg version="1.1" id="Layer_1" xmlns="http://www.w3.org/2000/svg" xmlns:xlink="http://www.w3.org/1999/xlink" x="0px" y="0px" fill="#FFFFFF"
	 viewBox="0 0 650 650" style="enable-background:new 0 0 512 512;" xml:space="preserve">
<g>
	<path d="M73.03,202.91c-3.83,0-6.98,3.1-6.98,6.98v27.04c-15.6-14.31-39.77-13.52-54.47,1.75c-15.43,16-15.43,41.35,0,57.34
		c14.7,15.27,38.92,16,54.53,1.69v4.96c1.13,3.66,5.07,5.75,8.73,4.62c2.2-0.68,3.94-2.42,4.62-4.62v-92.77
		C79.51,206.23,76.69,203.19,73.03,202.91z M58.55,286.67c-9.74,10.25-25.97,10.65-36.22,0.9c-0.34-0.28-0.62-0.62-0.9-0.9
		c-10.36-10.82-10.36-27.88,0-38.7c9.74-10.25,25.97-10.65,36.22-0.9c0.34,0.28,0.62,0.62,0.9,0.9
		C68.92,258.84,68.92,275.91,58.55,286.67z"/>
	<path d="M168.06,272.76c1.24-1.3,1.92-2.99,1.97-4.73c-0.06-10.7-4.28-20.95-11.77-28.56c-14.98-15.55-39.77-16-55.31-1.01
		c-0.34,0.34-0.68,0.68-1.01,1.01c-15.43,16-15.43,41.35,0,57.34c12.28,12.73,31.66,15.6,47.15,6.98
		c5.63-3.15,10.42-7.6,13.97-13.01c1.92-3.1,1.07-7.15-1.86-9.29c-3.1-1.86-7.1-0.96-9.24,1.97c-2.37,3.61-5.58,6.53-9.35,8.67
		c-3.83,2.14-8.11,3.27-12.5,3.27c-7.04,0-13.74-2.87-18.64-7.94c-3.38-3.55-5.8-7.89-6.98-12.62h58.58
		C164.9,274.79,166.76,274.05,168.06,272.76z M130.32,240.76c6.98,0.06,13.69,2.93,18.59,7.94c3.44,3.55,5.86,7.94,6.98,12.73H104.8
		c1.18-4.79,3.55-9.18,6.98-12.73C116.63,243.69,123.28,240.82,130.32,240.76z"/>
	<path d="M430.1,238.4c-15.04-15.83-40.05-16.45-55.88-1.41c-0.45,0.45-0.96,0.9-1.41,1.41c-7.72,7.83-12,18.42-11.77,29.4
		c-0.11,10.87,4.06,21.29,11.66,29.07c15.6,15.88,41.18,16.17,57.06,0.51c0.17-0.17,0.34-0.34,0.51-0.51
		c7.55-7.77,11.77-18.25,11.66-29.12c0.11-10.93-4.11-21.52-11.89-29.23 M401.54,240.48c6.98,0,13.63,2.93,18.31,8.11
		c5.01,5.18,7.77,12.11,7.66,19.32c0.11,7.15-2.59,14.08-7.6,19.21c-4.79,5.18-11.55,8-18.59,7.83c-6.93,0.17-13.63-2.65-18.31-7.77
		c-4.96-5.13-7.66-12.05-7.49-19.21c-0.17-7.27,2.65-14.31,7.77-19.49c4.62-5.24,11.27-8.22,18.25-8.11"/>
	<path d="M351.41,255.07v46.13c0.17,3.83-2.76,7.15-6.65,7.32c-3.83,0.17-7.15-2.76-7.32-6.65v-46.53c0-4.22-1.69-8.22-4.68-11.15
		c-2.42-2.65-5.75-4.28-9.29-4.56h-1.07c-3.94-0.06-7.66,1.63-10.25,4.62c-2.7,2.76-4.22,6.48-4.34,10.31v1.13v45.68
		c0,3.83-3.1,6.98-6.98,6.98c-3.66,0-6.7-2.76-6.98-6.42v-47.49c-0.34-2.42-1.01-4.73-1.97-6.98c-0.68-1.3-1.46-2.53-2.42-3.61
		c-2.65-2.93-6.37-4.68-10.31-4.68c-3.94,0-7.66,1.69-10.2,4.68c-2.87,2.93-4.51,6.93-4.45,11.04v47.15
		c-0.45,3.55-3.44,6.2-6.98,6.14c-3.83,0-6.98-3.1-6.98-6.98v-68.5c-0.39-3.83,2.37-7.27,6.2-7.66c3.32-0.34,6.42,1.69,7.38,4.9
		l1.63-1.07c4.17-2.2,8.79-3.38,13.46-3.32c6.93-0.06,13.58,2.42,18.76,6.98c0.62,0.51,1.18,1.13,1.69,1.75
		c0.51,0.39,0.96,0.84,1.41,1.35l1.24-1.35c0.51-0.62,1.07-1.24,1.69-1.75c5.18-4.56,11.83-7.04,18.7-6.98h2.42
		c6.08,0.45,11.83,2.87,16.34,6.98c0.51,0.56,1.13,1.07,1.69,1.63C348.65,239.69,351.52,247.24,351.41,255.07"/>
	<path d="M240.66,284.81c0.06,13.18-10.48,23.94-23.66,24.22h-28.61c-3.83,0-6.98-3.1-6.98-6.98s3.1-6.98,6.98-6.98h27.94
		c5.63-0.11,10.08-4.73,10.03-10.31c0.06-5.58-4.45-10.14-10.03-10.2h-0.06H202.3c-13.41-0.73-23.66-12.17-22.98-25.57
		c0.68-12.39,10.59-22.31,22.98-22.98h28.28c3.83,0,6.98,3.1,6.98,6.98c0,3.89-3.1,6.98-6.98,6.98h-27.66
		c-5.63,0.45-9.86,5.41-9.41,11.1c0.39,5.01,4.39,8.96,9.41,9.41h13.97c3.32,0,6.65,0.68,9.69,2.08
		C235.31,266.45,240.66,275.24,240.66,284.81"/>
	<path d="M512,284.7c0,13.18-10.31,24.05-23.43,24.39h-28.61c-3.83,0-6.98-3.1-6.98-6.98s3.1-6.98,6.98-6.98h28.28
		c5.63-0.11,10.08-4.73,10.03-10.31c0.06-5.58-4.45-10.14-10.03-10.2h-0.06H474.2c-13.41-0.73-23.66-12.17-22.98-25.57
		c0.68-12.39,10.59-22.31,22.98-22.98h27.94c3.83,0,6.98,3.1,6.98,6.98c0,3.89-3.1,6.98-6.98,6.98H474.2
		c-5.69,0-10.25,4.62-10.25,10.25c0,5.58,4.51,10.14,10.03,10.2h13.97c3.32,0,6.65,0.73,9.69,2.08
		C506.37,266.45,512,275.12,512,284.7"/>
</g>
</svg>
